PathFileType	4	(X/Y/Z)	C:\Users\Ali Mert BOSTAN\Desktop\Yazýlým\Hacettepe-Bil-D-nem-Proje\basket_Sports2D\basket_Sports2D_px_person00.trc
DataRate	CameraRate	NumFrames	NumMarkers	Units	OrigDataRate	OrigDataStartFrame	OrigNumFrames
120.0	120.0	9	22	m	120.0	232	266
Frame#	Time	Hip			RHip			RKnee			RAnkle			RBigToe			RSmallToe			RHeel			LHip			LKnee			LAnkle			LBigToe			LSmallToe			LHeel			Neck			Head			Nose			RShoulder			RElbow			RWrist			LShoulder			LElbow			LWrist		
		X1	Y1	Z1	X2	Y2	Z2	X3	Y3	Z3	X4	Y4	Z4	X5	Y5	Z5	X6	Y6	Z6	X7	Y7	Z7	X8	Y8	Z8	X9	Y9	Z9	X10	Y10	Z10	X11	Y11	Z11	X12	Y12	Z12	X13	Y13	Z13	X14	Y14	Z14	X15	Y15	Z15	X16	Y16	Z16	X17	Y17	Z17	X18	Y18	Z18	X19	Y19	Z19	X20	Y20	Z20	X21	Y21	Z21	X22	Y22	Z22
232	1.9333333333333333	403.0673541461401	594.0767604031711	0.0	418.88461090551823	590.698703905755	0.0	423.5120796141463	790.1882408245873	0.0	382.144791866957	985.5751072481667	0.0	453.971531415007	1011.0146111615067	0.0	443.3578677609874	1022.0087311750065	0.0	354.47985117319615	1007.9766253732779	0.0	384.48897791981193	587.8836650956188	0.0	379.7440289647329	782.6345878859606	0.0	355.6610357602805	973.7565880664547	0.0	438.9789589349986	996.8174090204287	0.0	424.3248664900275	990.6658921654298	0.0	333.1521028922977	993.2365937998679	0.0	394.49330440642706	337.3339564551689	0.0	387.73408766097776	224.09216194078803	0.0	436.7827268763447	280.1497974585178	0.0	425.6248652386982	350.2805658876783	0.0	551.0929891753381	293.0128478881874	0.0	496.98840795102996	201.69721507096745	0.0	366.7802018367583	365.11613033525896	0.0	405.484839981555	328.4031201084796	0.0	443.99209071793337	252.23914310778918	0.0
233	1.9416666666666667	403.118398743173	593.986319603976	0.0	418.99031265916017	590.4259116794352	0.0	423.59596943908434	790.02579009253	0.0	382.3165886846394	985.3526764452872	0.0	454.00597195765573	1011.0276328478435	0.0	443.43140135880066	1021.9805180757224	0.0	354.5605726463906	1007.7841616643191	0.0	384.4099128828375	587.7656633156421	0.0	379.6817409005508	782.5067215449201	0.0	355.69121487839675	973.5747731515575	0.0	438.8841902179087	996.6339468148943	0.0	424.24277456820266	990.4235497553129	0.0	333.22852827965755	993.0284065986936	0.0	394.4683819153452	337.34458559533647	0.0	387.4397247248333	224.04326789389324	0.0	436.7559824692535	279.99923832612035	0.0	425.77344044292244	349.99646642532343	0.0	551.1884712172799	292.22694708478656	0.0	498.0443854877463	200.05210687109678	0.0	366.690052906988	365.03195828941364	0.0	405.6472454160038	329.7005676810483	0.0	444.51820005565764	257.1022105139766	0.0
234	1.95	403.1918407778373	593.9349274510871	0.0	419.07807421887657	590.1719256842395	0.0	423.6572574135735	789.8633419531301	0.0	382.4661679991841	985.1240424030273	0.0	454.016459596632	1011.025048712542	0.0	443.48450220995016	1021.9350912935208	0.0	354.6205412532638	1007.5656848299484	0.0	384.3403209760729	587.6795419665492	0.0	379.63229233471395	782.3787191064791	0.0	355.7432325154955	973.3591522625521	0.0	438.81603476029335	996.3946219549891	0.0	424.1635735232053	990.1476820914154	0.0	333.3103427168282	992.793046136869	0.0	394.4589566419342	337.38197046741686	0.0	387.1376609967305	224.0497454247899	0.0	436.71464802500617	279.8736248982627	0.0	425.9264289240948	349.6864789653916	0.0	551.2475074474664	291.3785234072141	0.0	499.1938267088301	198.2933941081172	0.0	366.6073672402135	364.91039049785206	0.0	406.00060604751974	330.2964329051476	0.0	445.1997643726641	260.0616420783732	0.0
235	1.9583333333333333	403.2848834812514	593.9328436546315	0.0	419.146532681988	589.9641840992474	0.0	423.6825987223644	789.7255867234032	0.0	382.5948876725305	984.907172139706	0.0	454.00389059833384	1011.0175808287855	0.0	443.5178700495482	1021.8824972262436	0.0	354.6533448836397	1007.345741872511	0.0	384.28740534025906	587.6410283945538	0.0	379.59623726805296	782.2745918645783	0.0	355.8191059221706	973.1213434290947	0.0	438.784543422703	996.1319410557246	0.0	424.10674557342315	989.8693890575188	0.0	333.396887335597	992.5452621132276	0.0	394.4776297514369	337.438696861473	0.0	386.84371582750225	224.1069695349982	0.0	436.6589510674891	279.7641011115398	0.0	426.08755137942256	349.3587217968235	0.0	551.2616268940177	290.4623385128491	0.0	500.45750830354785	196.42267666598497	0.0	366.5374649740632	364.7504355954663	0.0	406.59091599929565	330.08995483288135	0.0	446.0716948580439	260.65929322448216	0.0
236	1.9666666666666666	403.39450242233977	593.9824230543478	0.0	419.19675163482117	589.8158853674491	0.0	423.668716856591	789.6294802376028	0.0	382.70135839169734	984.7254775731186	0.0	453.961875010589	1011.0097530800955	0.0	443.5269031147445	1021.8302477385791	0.0	354.6526674135882	1007.1427431858654	0.0	384.2571164701805	587.651466135203	0.0	379.5713889925242	782.2102842809346	0.0	355.91261245595916	972.883529952692	0.0	438.78759329360906	995.8730066159789	0.0	424.0869429772034	989.6140376953553	0.0	333.4907996708223	992.3086090075393	0.0	394.53318638498564	337.50758291989933	0.0	386.57902564646196	224.20826526521955	0.0	436.6032311110213	279.6593157441676	0.0	426.2553406985587	349.0240022552539	0.0	551.2251017772936	289.47329082847534	0.0	501.85226635249586	194.44568007207562	0.0	366.48479871003343	364.552005398448	0.0	407.44390125225965	329.29921401698385	0.0	447.17544520168485	259.424764216501	0.0
237	1.9749999999999999	403.515905836888	594.0714541834157	0.0	419.2321631359293	589.7260461163287	0.0	423.62276277997404	789.5755030234491	0.0	382.7829858893033	984.5948247940527	0.0	453.88154789438	1011.0017415792861	0.0	443.5030998041886	1021.7853952956948	0.0	354.6152900238883	1006.9681225124601	0.0	384.2511783839674	587.6978709992713	0.0	379.5544662812564	782.184727831996	0.0	356.00870034751506	972.6643021860467	0.0	438.81292235733105	995.634660973027	0.0	424.1007707252838	989.3966562253654	0.0	333.5929517768449	992.101130060174	0.0	394.6282710889725	337.57891545982244	0.0	386.36622371387824	224.33637185161933	0.0	436.5674417856859	279.5328962373556	0.0	426.42669666406886	348.68880146199024	0.0	551.1378727994334	288.4094901543395	0.0	503.39470031438333	192.36926935022038	0.0	366.4520111870132	364.31482667202226	0.0	408.5645475743127	328.2699013599511	0.0	448.5394498059229	257.35761715072806	0.0
238	1.9833333333333334	403.63876275563644	594.1792029247645	0.0	419.2554462956831	589.6888584152746	0.0	423.5520123332056	789.555090236707	0.0	382.8351013689344	984.5206213123474	0.0	453.76693398237404	1010.994381251853	0.0	443.4472987939424	1021.7584175923271	0.0	354.54106722526575	1006.8362680948053	0.0	384.26604484138466	587.7655261002178	0.0	379.54308614491833	782.1868944858389	0.0	356.0937287844527	972.4730340287451	0.0	438.8592183142111	995.4276993826293	0.0	424.1354007596307	989.2244358671646	0.0	333.69820910115266	991.9283717653291	0.0	394.7575613082185	337.63952363502375	0.0	386.22435656116966	224.4647005330853	0.0	436.55947399083817	279.3457129311595	0.0	426.60208674598874	348.35052981548154	0.0	551.0043244306646	287.2735283496003	0.0	505.1023678304944	190.1993269422542	0.0	366.43896205523396	364.040392810795	0.0	409.944652588673	327.2166244848952	0.0	450.15944484298024	255.18795845022362	0.0
239	1.9916666666666667	403.7497887920411	594.283635081228	0.0	419.27274832849207	589.6929671745854	0.0	423.4627559974784	789.5612642150063	0.0	382.8513278122155	984.5016515004631	0.0	453.6311279860715	1010.9852801845113	0.0	443.37266315704807	1021.7538860574373	0.0	354.4314754039057	1006.7573380516955	0.0	384.29260487004467	587.8390032139838	0.0	379.53221045119744	782.2057737261782	0.0	356.16071248522786	972.3139763299002	0.0	438.9320593752746	995.2607618540864	0.0	424.1717481262811	989.0953626244103	0.0	333.79937587134475	991.791505783579	0.0	394.90697458778664	337.6734290995189	0.0	386.1643515069091	224.5785791005173	0.0	436.5761094772561	279.07254875042617	0.0	426.7856444691756	348.00117072073664	0.0	550.828051413213	286.0662297260683	0.0	506.9870312200962	187.9413510873807	0.0	366.44020322725385	363.73545301462275	0.0	411.5555498779519	326.1705108652236	0.0	452.00482392723177	253.148649056907	0.0
240	2.0	403.83831721365345	594.3639767377017	0.0	419.2991926419868	589.7222885874709	0.0	423.365262840713	789.5929921806606	0.0	382.8292398853449	984.5355562085049	0.0	453.48238823633625	1010.9683789021091	0.0	443.29608754548286	1021.7642559945876	0.0	354.2907658820006	1006.730046067587	0.0	384.31903493820755	587.8986618665845	0.0	379.5139822173947	782.2342608228931	0.0	356.2056780509369	972.1940427596263	0.0	439.026283460387	995.1443789823295	0.0	424.1854354820429	989.0001991022064	0.0	333.89521261359056	991.698728586105	0.0	395.05574442153926	337.6636731806958	0.0	386.18868243263665	224.68643039046086	0.0	436.61250186426025	278.71843068038504	0.0	426.9799657714114	347.63502473440514	0.0	550.6062351261542	284.7830030287034	0.0	509.05103756086004	185.6004809178314	0.0	366.44270495882563	363.4117040193207	0.0	413.3444587275576	325.00159302636666	0.0	454.03735534180447	250.98404767267263	0.0
